<svg xmlns="http://www.w3.org/2000/svg" xml:space="preserve" width="512" height="512" fill-rule="evenodd" clip-rule="evenodd" image-rendering="optimizeQuality" shape-rendering="geometricPrecision" text-rendering="geometricPrecision" id="maseratti">
  <path fill="#2B2A29" d="M111 306h287v12H111v-12zm71 62h145s-33 7-38 28-4 20-4 20h-61s0-39-42-48zm39 89h64v42h-64v-42zm-10-31h85v21h-85v-21zm95-309-42-17s0 19 4 81 50 116 50 116h-37l-25-62-27 62h-35s15-19 31-56c17-37 19-64 19-64l2-77-44 15s25-23 37-54 15-52 15-52 6 62 52 108zM127 298c-7-77-20-128-64-193 0 0 35-4 66 25s23 29 23 29l-42-10c21 35 48 110 48 149h-31zm257 71v21l-8 2h-2s-15-2-19-13l-4-10h32zm-250 23h1s15-2 19-13l4-10h-32v21l8 2h1zm264-45H111v12h287v-12zm-13-20H125v12h260v-12zm-3-29c7-77 20-128 64-193 0 0-35-4-66 25s-23 29-23 29l42-10c-21 35-48 110-48 149h31z" style="fill:#2b2a29"></path>
</svg>
