<svg width="256" height="60" viewBox="0 0 256 60" fill="none" xmlns="http://www.w3.org/2000/svg">
<path fill-rule="evenodd" clip-rule="evenodd" d="M58.3702 9.96103C57.7115 8.02689 56.655 6.22543 55.2629 4.73534C53.8761 3.24196 52.1829 2.04174 50.3227 1.22922C46.5994 -0.415297 42.2297 -0.401903 38.5459 1.22239C34.8521 2.82849 31.9345 6.00354 30.6089 9.75683C30.2776 10.6945 30.0442 11.6657 29.9132 12.6491C29.7732 13.6228 29.7739 14.6555 29.7904 15.5666L29.8424 21.1868L29.9302 32.4277L29.9615 38.0479C29.9653 38.9848 29.9547 39.9214 29.9696 40.858C29.975 41.323 29.9914 41.8027 29.9884 42.2554C29.9944 42.7078 29.9621 43.1576 29.953 43.611C29.8935 44.5133 29.7906 45.42 29.5951 46.3155C29.4057 47.2124 29.1015 48.0881 28.7131 48.9259C27.9325 50.5995 26.8294 52.1482 25.4386 53.4043C22.6494 55.9 18.831 57.2607 15.0857 56.9438C13.2157 56.8202 11.3717 56.3021 9.7134 55.4309C8.05151 54.5626 6.58888 53.329 5.42465 51.8647C4.83975 51.1343 4.3249 50.349 3.8849 49.5244C3.44464 48.7007 3.07292 47.8377 2.81524 46.941C2.2579 45.1592 2.12944 43.2605 2.38307 41.4529C2.52216 40.5474 2.73862 39.6543 3.0274 38.7937C3.32832 37.9362 3.70055 37.1128 4.13549 36.3397C4.56412 35.5633 5.07163 34.8458 5.62391 34.1877C6.16709 33.5233 6.77247 32.9223 7.44006 32.4113C10.05 30.2987 13.5121 29.3904 17.0505 29.3778C20.7129 29.3831 24.375 29.4369 28.0382 29.4159L28.0101 25.577C24.3637 25.6548 20.7155 25.8989 17.0695 26.1651C15.0364 26.3149 13.0278 26.8035 11.1406 27.5874C10.1956 27.9731 9.29843 28.4672 8.44725 29.0105C7.60012 29.5618 6.79523 30.1721 6.07883 30.8706C5.34904 31.5543 4.70901 32.3233 4.13878 33.1313C3.56602 33.9385 3.06558 34.794 2.66048 35.6915C1.81461 37.4732 1.2727 39.3806 1.05346 41.3592C0.851162 43.3563 0.979369 45.4031 1.45022 47.3891C1.92917 49.3745 2.77882 51.2955 3.97972 53.034C5.18366 54.7655 6.74946 56.3208 8.62174 57.5056C10.491 58.6881 12.6584 59.4832 14.8756 59.8057C15.1532 59.8557 15.4301 59.8815 15.7083 59.9106C15.9857 59.9404 16.2641 59.9695 16.5564 59.978C16.8462 59.9937 17.136 60.0043 17.4253 59.9983C17.7156 59.9998 18.0057 59.9925 18.2944 59.9717C19.4536 59.9101 20.6055 59.7144 21.7232 59.3988C22.8416 59.0867 23.9307 58.6633 24.9721 58.1389C26.0147 57.6148 26.9936 56.9665 27.9145 56.2414C29.7378 54.765 31.2378 52.887 32.3505 50.8012C32.4938 50.5424 32.6243 50.277 32.7475 50.0081C32.8754 49.741 32.991 49.469 33.0985 49.1933C33.3276 48.6482 33.5132 48.0848 33.6669 47.5154C33.984 46.3781 34.1815 45.2163 34.3138 44.0568C34.3603 43.4755 34.4202 42.8958 34.4372 42.3155L34.4665 41.5609L34.5032 40.858L34.6385 38.0479L34.7667 32.4277L35.013 21.1868L35.1316 15.5666L35.1435 14.864L35.1472 14.6959L35.1543 14.5784L35.1665 14.3431C35.1872 14.0305 35.2241 13.7206 35.2749 13.4146C35.3814 12.8035 35.5273 12.202 35.7458 11.6245C36.1792 10.4685 36.8602 9.41008 37.6982 8.49571C38.5449 7.58689 39.5794 6.85094 40.7158 6.35584C41.8542 5.86201 43.0898 5.61155 44.3521 5.60928C45.613 5.58881 46.8619 5.82738 48.0254 6.31465C49.1878 6.80065 50.2625 7.53457 51.1494 8.46058C52.0296 9.39138 52.7422 10.4905 53.1972 11.6996C53.6549 12.9046 53.8604 14.2241 53.7944 15.5476C53.734 16.8641 53.4063 18.1687 52.8133 19.3692C52.217 20.5636 51.3754 21.665 50.3205 22.5275C49.269 23.3914 48.0383 24.0409 46.7198 24.4088C46.0621 24.5986 45.3828 24.7275 44.69 24.7829L44.4295 24.7988C44.3347 24.8036 44.2752 24.8127 44.1438 24.8142L43.4408 24.8332L42.0348 24.8706L36.798 25.0103L36.7014 29.424L42.0348 29.4943L43.4408 29.5127L44.1438 29.5221L44.8966 29.5153C45.9118 29.4844 46.9264 29.3482 47.9182 29.1116C49.9057 28.6484 51.7985 27.7537 53.424 26.5055C55.057 25.2641 56.3937 23.6496 57.3746 21.853C59.3417 18.2432 59.7003 13.8326 58.3702 9.96103" fill="#FD5F07"/>
<path fill-rule="evenodd" clip-rule="evenodd" d="M156.549 44.1251H162.444V24.1979H156.549V44.1251ZM159.496 21.8576C157.599 21.8576 156.065 20.2843 156.065 18.4286C156.065 16.5733 157.599 15 159.496 15C161.394 15 162.928 16.5733 162.928 18.4286C162.928 20.2843 161.394 21.8576 159.496 21.8576ZM89.7307 28.7578H86.0573V21.3359H89.7307C92.153 21.3359 93.8892 22.7074 93.8892 25.0469C93.8892 27.3864 92.153 28.7578 89.7307 28.7578ZM99.9833 25.0042C99.9833 19.1956 95.7447 15.888 89.6085 15.888H80V44.1247H86.0557V34.1209H89.6085C95.7447 34.1209 99.9833 30.7728 99.9833 25.0042ZM110.966 28.2708C113.347 28.2708 115.164 29.8037 115.406 31.9413H106.484C106.726 30.0456 108.624 28.2708 110.966 28.2708ZM111.249 44.6481C115.609 44.6481 118.839 42.6309 120.494 39.3638L115.528 37.3871C114.599 38.8795 113.429 39.8076 111.249 39.8076C108.786 39.8076 106.647 38.1128 106.444 35.7733H121.099C121.139 35.5314 121.18 35.0071 121.18 34.3214C121.18 28.069 117.022 23.6719 111.007 23.6719C105.113 23.6719 100.672 28.15 100.672 34.16C100.672 40.3319 105.031 44.6481 111.249 44.6481ZM136.597 29.9271C136.274 29.7657 135.708 29.6852 135.103 29.6852C131.833 29.6852 129.895 32.1052 129.895 36.0181V44.1262H124.042V24.199H129.855V27.4666C130.905 25.1671 133.003 23.7552 135.587 23.7552C136.032 23.7552 136.476 23.8357 136.597 23.8762V29.9271ZM145.539 31.2957C144.449 31.0133 143.884 30.489 143.884 29.7628C143.884 28.9562 144.651 28.3914 145.741 28.3914C146.952 28.3914 148.284 29.3595 148.89 30.8524L153.694 28.3109C152.442 25.5271 149.213 23.6719 145.781 23.6719C141.22 23.6719 138.071 26.3343 138.071 30.1262C138.071 33.2724 140.009 35.37 143.763 36.2576L146.104 36.8224C147.315 37.1043 147.921 37.629 147.921 38.3147C147.921 39.2828 147.073 39.8476 145.822 39.8476C144.328 39.8476 142.834 38.799 142.107 37.1447L137.344 39.7671C138.676 42.8328 141.825 44.6481 145.781 44.6481C150.424 44.6481 153.815 41.8243 153.815 37.8309C153.815 35.0071 151.797 32.9095 148.042 31.9414L145.539 31.2957ZM173.018 31.2957C171.928 31.0133 171.363 30.489 171.363 29.7628C171.363 28.9562 172.13 28.3914 173.219 28.3914C174.431 28.3914 175.763 29.3595 176.369 30.8524L181.173 28.3109C179.921 25.5271 176.692 23.6719 173.26 23.6719C168.698 23.6719 165.549 26.3343 165.549 30.1262C165.549 33.2724 167.487 35.37 171.242 36.2576L173.583 36.8224C174.794 37.1043 175.4 37.629 175.4 38.3147C175.4 39.2828 174.552 39.8476 173.301 39.8476C171.807 39.8476 170.313 38.799 169.587 37.1447L164.823 39.7671C166.155 42.8328 169.304 44.6481 173.26 44.6481C177.903 44.6481 181.294 41.8243 181.294 37.8309C181.294 35.0071 179.276 32.9095 175.521 31.9414L173.018 31.2957ZM191.091 18.349V24.198H196.137V29.0385H191.091V36.3399C191.091 38.478 192.02 39.3247 193.958 39.3247C194.684 39.3247 195.491 39.1232 196.137 38.7199V43.8028C195.25 44.2461 193.917 44.609 192.02 44.609C187.821 44.609 185.237 42.0275 185.237 37.5904V29.0385H182.411V24.198H185.237V18.349H191.091ZM207.734 28.2708C210.116 28.2708 211.932 29.8037 212.174 31.9413H203.253C203.495 30.0456 205.392 28.2708 207.734 28.2708ZM208.017 44.6481C212.377 44.6481 215.607 42.6309 217.262 39.3638L212.296 37.3871C211.368 38.8795 210.197 39.8076 208.017 39.8076C205.555 39.8076 203.415 38.1128 203.213 35.7733H217.867C217.908 35.5314 217.948 35.0071 217.948 34.3214C217.948 28.069 213.79 23.6719 207.775 23.6719C201.881 23.6719 197.44 28.15 197.44 34.16C197.44 40.3319 201.8 44.6481 208.017 44.6481ZM226.707 44.1233H220.812V24.1962H226.707V26.7376C227.918 24.8014 229.936 23.6719 232.601 23.6719C237.162 23.6719 239.948 26.7776 239.948 31.8204V44.1233H234.054V33.1914C234.054 30.57 232.762 29.0771 230.461 29.0771C228.2 29.0771 226.707 30.7714 226.707 33.5547V44.1233ZM250.383 24.198V18.349H244.529V24.198H241.703V29.0385H244.529V37.5904C244.529 42.0275 247.113 44.609 251.311 44.609C253.208 44.609 254.541 44.2461 255.429 43.8028V38.7199C254.783 39.1232 253.976 39.3247 253.249 39.3247C251.311 39.3247 250.383 38.478 250.383 36.3399V29.0385H255.429V24.198H250.383Z" fill="#342E39"/>
</svg>
